<svg width="1440" height="1601" viewBox="0 0 1440 1601" fill="none" xmlns="http://www.w3.org/2000/svg">
<path opacity="0.1" fill-rule="evenodd" clip-rule="evenodd" d="M1466.7 1601L-30 1601V1595.11H-29.9986L-29.9986 1361.64H-29.9994L-29.9994 1355.75H-29.9986L-29.9986 1122.28H-29.9989L-29.9989 1116.39H-29.9986L-29.9986 643.556H-29.9989L-29.9989 637.669H-29.9986L-29.9986 404.197H-29.9989L-29.9989 398.31H-29.9986L-29.9987 0.89209H-24.1119L-24.1119 158.948H219.021V0.891602H224.908V158.948H468.04L468.04 0.891602H473.927L473.927 158.948H717.057V0.891846H722.944V158.948H966.079V0.891846H971.966V158.948H1215.09V0.891724H1220.98V158.948H1464.11V0.891724H1470V1599.48L1466.7 1599.48V1601ZM1464.11 1595.11L1220.98 1595.11V1361.64H1464.11V1595.11ZM1464.11 1355.75H1220.98V1122.28H1464.11V1355.75ZM1464.11 1116.39H1220.98V882.917H1464.11V1116.39ZM1464.11 877.03H1220.98V643.556H1464.11V877.03ZM1464.11 637.669H1220.98V404.197H1464.11V637.669ZM1464.11 398.31H1220.98V164.835H1464.11V398.31ZM1215.09 164.835V398.31H971.966V164.835H1215.09ZM966.079 164.835V398.31H722.944V164.835H966.079ZM717.057 164.835V398.31H473.927V164.835H717.057ZM468.04 164.835V398.31H224.908L224.908 164.835H468.04ZM219.021 164.835L219.021 398.31H-24.1119L-24.1119 164.835H219.021ZM-24.1119 404.197H219.021V637.669H-24.1119L-24.1119 404.197ZM-24.1119 643.556H219.021L219.021 877.03H-24.1119L-24.1119 643.556ZM-24.1119 882.917H219.021V1116.39H-24.1119L-24.1119 882.917ZM-24.1119 1122.28H219.021L219.021 1355.75H-24.1118L-24.1119 1122.28ZM-24.1118 1361.64H219.021V1595.11L-24.1118 1595.11L-24.1118 1361.64ZM224.908 1595.11V1361.64H468.04V1595.11L224.908 1595.11ZM473.927 1595.11V1361.64H717.057V1595.11L473.927 1595.11ZM722.944 1595.11V1361.64H966.079V1595.11L722.944 1595.11ZM971.966 1595.11V1361.64H1215.09V1595.11L971.966 1595.11ZM1215.09 1355.75H971.966V1122.28H1215.09V1355.75ZM1215.09 1116.39H971.966V882.917L1215.09 882.917V1116.39ZM1215.09 877.03L971.966 877.03V643.556L1215.09 643.556V877.03ZM1215.09 637.669L971.966 637.669L971.966 404.197H1215.09V637.669ZM966.079 404.197L966.079 637.669H722.944L722.944 404.197H966.079ZM717.057 404.197L717.057 637.669H473.927V404.197H717.057ZM468.04 404.197V637.669H224.908V404.197H468.04ZM224.908 643.556H468.04L468.04 877.03H224.908L224.908 643.556ZM224.908 882.917H468.04L468.04 1116.39H224.908V882.917ZM224.908 1122.28H468.04V1355.75H224.908L224.908 1122.28ZM473.927 1355.75V1122.28H717.057V1355.75H473.927ZM722.944 1355.75V1122.28H966.079V1355.75H722.944ZM966.079 1116.39H722.944V882.917H966.079V1116.39ZM966.079 877.03H722.944V643.556H966.079L966.079 877.03ZM717.057 643.556L717.057 877.03H473.927L473.927 643.556H717.057ZM473.927 882.917H717.057V1116.39H473.927L473.927 882.917Z" fill="url(#paint0_linear_531_15581)"/>
<defs>
<linearGradient id="paint0_linear_531_15581" x1="720" y1="1284.34" x2="720" y2="79.241" gradientUnits="userSpaceOnUse">
<stop stop-color="white"/>
<stop offset="1" stop-color="white" stop-opacity="0"/>
</linearGradient>
</defs>
</svg>
