<svg width="1750" height="1750" viewBox="0 0 1750 1750" fill="none" xmlns="http://www.w3.org/2000/svg">
<path opacity="0.1" fill-rule="evenodd" clip-rule="evenodd" d="M1202.99 0.236328H1209.82V116.381H1628.58L1630.99 113.965L1635.82 118.796L1633.41 121.212V539.967H1749.55V546.799H1633.41V871.32H1749.55V878.152H1633.41V1202.67H1749.55V1209.51H1633.41V1628.26L1635.82 1630.68L1630.99 1635.51L1628.58 1633.09H1209.82V1749.24H1202.99V1633.09H878.467V1749.24H871.635V1633.09H547.113V1749.24H540.281V1633.09H121.526L119.111 1635.51L114.28 1630.68L116.695 1628.26V1209.51H0.550781V1202.67H116.695V878.152H0.550781V871.32H116.695V546.799H0.550781V539.967H116.695V121.212L114.28 118.796L119.111 113.965L121.526 116.381H540.281V0.236328H547.113V116.381H871.635V0.236328H878.467V116.381H1202.99V0.236328ZM123.535 878.152C124.053 994.464 150.992 1104.54 198.662 1202.67H536.399C454.954 1118.58 404.548 1004.25 403.653 878.152H123.535ZM403.653 871.32H123.535C124.053 755.009 150.992 644.937 198.662 546.799H536.399C454.954 630.888 404.548 745.219 403.653 871.32ZM410.485 878.152C411.376 1001.88 460.63 1114.1 540.281 1196.86V878.152H410.485ZM540.281 871.32H410.485C411.376 747.597 460.63 635.373 540.281 552.614V871.32ZM547.113 878.152V1197.84L866.804 878.152H547.113ZM866.804 871.32H547.113V551.63L866.804 871.32ZM883.298 878.152L1202.99 1197.84V878.152H883.298ZM1202.99 871.32H883.298L1202.99 551.63V871.32ZM1209.82 878.152V1196.86C1289.47 1114.1 1338.73 1001.88 1339.62 878.152H1209.82ZM1339.62 871.32H1209.82V552.614C1289.47 635.373 1338.73 747.597 1339.62 871.32ZM1346.45 878.152C1345.55 1004.25 1295.15 1118.58 1213.7 1202.67H1551.44C1599.11 1104.54 1626.05 994.464 1626.57 878.152H1346.45ZM1626.57 871.32H1346.45C1345.55 745.219 1295.15 630.888 1213.7 546.799H1551.44C1599.11 644.937 1626.05 755.009 1626.57 871.32ZM1202.99 1551.13C1104.85 1598.79 994.778 1625.73 878.467 1626.25V1346.13C1004.57 1345.24 1118.9 1294.83 1202.99 1213.39V1551.13ZM1197.17 1209.51C1114.41 1289.16 1002.19 1338.41 878.467 1339.3V1209.51H1197.17ZM871.635 1339.3V1209.51H552.929C635.688 1289.16 747.911 1338.41 871.635 1339.3ZM1198.16 1202.67H878.467V882.983L1198.16 1202.67ZM871.635 1202.67V882.983L551.944 1202.67H871.635ZM1198.16 546.799L878.467 866.489V546.799H1198.16ZM871.635 866.49V546.799H551.944L871.635 866.49ZM1197.17 539.967H878.467V410.171C1002.19 411.061 1114.41 460.315 1197.17 539.967ZM871.635 539.967V410.171C747.911 411.061 635.688 460.315 552.929 539.967H871.635ZM1202.99 536.085C1118.9 454.64 1004.57 404.233 878.467 403.338V123.22C994.778 123.738 1104.85 150.678 1202.99 198.347V536.085ZM871.635 403.338V123.22C755.323 123.738 645.252 150.678 547.113 198.347V536.085C631.203 454.64 745.534 404.233 871.635 403.338ZM871.635 1626.25V1346.13C745.534 1345.24 631.203 1294.83 547.113 1213.39V1551.13C645.252 1598.79 755.323 1625.73 871.635 1626.25ZM123.527 546.799V772.504C134.287 692.658 157.472 616.753 191.073 546.799H123.527ZM194.397 539.967H123.527V128.044L336.402 340.919C278.98 398.858 230.839 466.013 194.397 539.967ZM535.45 539.967H202.023C237.951 467.878 285.119 402.374 341.233 345.75L535.45 539.967ZM1548.08 539.967H1214.65L1408.87 345.75C1464.98 402.374 1512.15 467.878 1548.08 539.967ZM1559.03 546.799C1592.63 616.753 1615.81 692.658 1626.57 772.504V546.799H1559.03ZM1626.57 539.967H1555.7C1519.26 466.013 1471.12 398.858 1413.7 340.919L1626.57 128.044V539.967ZM1626.57 976.969V1202.67H1559.03C1592.63 1132.72 1615.81 1056.81 1626.57 976.969ZM1548.08 1209.51H1214.65L1408.87 1403.72C1464.98 1347.1 1512.15 1281.59 1548.08 1209.51ZM535.45 1209.51H202.023C237.951 1281.59 285.119 1347.1 341.233 1403.72L535.45 1209.51ZM123.527 976.969C134.287 1056.81 157.472 1132.72 191.073 1202.67H123.527V976.969ZM194.397 1209.51H123.527V1621.43L336.402 1408.55C278.98 1350.61 230.839 1283.46 194.397 1209.51ZM1626.57 1209.51H1555.7C1519.26 1283.46 1471.12 1350.61 1413.7 1408.55L1626.57 1621.43V1209.51ZM540.281 123.213H128.358L341.233 336.088C399.173 278.665 466.327 230.525 540.281 194.082V123.213ZM547.113 190.758V123.213H772.818C692.973 133.972 617.068 157.157 547.113 190.758ZM540.281 201.709C468.192 237.636 402.688 284.805 346.064 340.919L540.281 535.136V201.709ZM540.281 1214.34V1547.76C468.192 1511.84 402.688 1464.67 346.064 1408.55L540.281 1214.34ZM540.281 1555.39C466.327 1518.95 399.173 1470.81 341.233 1413.38L128.358 1626.26H540.281V1555.39ZM547.113 1626.26V1558.71C617.068 1592.32 692.973 1615.5 772.818 1626.26H547.113ZM977.283 123.213H1202.99V190.758C1133.03 157.157 1057.13 133.972 977.283 123.213ZM1209.82 123.213V194.082C1283.77 230.525 1350.93 278.665 1408.87 336.088L1621.74 123.213H1209.82ZM1209.82 201.709V535.136L1404.04 340.919C1347.41 284.805 1281.91 237.636 1209.82 201.709ZM1209.82 1214.34V1547.76C1281.91 1511.84 1347.41 1464.67 1404.04 1408.55L1209.82 1214.34ZM977.283 1626.26C1057.13 1615.5 1133.03 1592.32 1202.99 1558.71V1626.26H977.283ZM1209.82 1555.39V1626.26H1621.74L1408.87 1413.38C1350.93 1470.81 1283.77 1518.95 1209.82 1555.39Z" fill="#E0E0E0"/>
</svg>
