<svg width="1440" height="453" viewBox="0 0 1440 453" fill="none" xmlns="http://www.w3.org/2000/svg">
<path fill-rule="evenodd" clip-rule="evenodd" d="M0 414H1440V76.0801C1440 76.0801 917.268 63.0283 836.036 370.066C833.169 380.903 812.411 321.455 704.385 255.398C596.359 189.342 420.46 112.707 122.575 197.726C92.8318 206.216 0 230.738 0 230.738V292.345V414Z" fill="#141414"/>
<path fill-rule="evenodd" clip-rule="evenodd" d="M-48.414 449.554L1475.4 391.672L1461.82 34.0848C1461.82 34.0848 908.134 41.2848 834.515 369.458C831.917 381.041 807.562 318.967 690.593 253.408C573.624 187.849 384.407 113.824 72.6022 215.766C41.4689 225.944 -55.7803 255.625 -55.7803 255.625L-53.3039 320.818L-48.414 449.554Z" stroke="#141414" stroke-width="6"/>
<path d="M1448.18 3.97814C1448.18 3.97814 895.236 33.3671 834.832 364.228C832.7 375.905 805.876 314.858 686.373 254.04C566.87 193.222 374.838 126.842 67.3701 241.201C36.6699 252.619 -59.3113 286.174 -59.3113 286.174" stroke="#FE8A01" stroke-width="6"/>
</svg>
