<svg width="441" height="92" viewBox="0 0 441 92" fill="none" xmlns="http://www.w3.org/2000/svg">
<rect width="439.215" height="89.2933" rx="24" transform="matrix(1 0 0.00708157 0.999975 0.279297 1.10474)" fill="white"/>
<path d="M22.202 48.9076L22.1572 42.5916C22.1529 41.9792 22.6274 41.4819 23.2165 41.4819H27.0431C27.1843 41.4814 27.3237 41.4523 27.453 41.3964C27.5822 41.3404 27.6986 41.2588 27.7952 41.1564L30.9709 37.5412C31.6382 36.8412 32.7909 37.3374 32.7979 38.3266L32.9031 53.1737C32.9102 54.1704 31.7505 54.6623 31.0774 53.9484L27.8614 50.3535C27.7631 50.2482 27.6443 50.1641 27.5125 50.1065C27.3806 50.0488 27.2385 50.0189 27.095 50.0184H23.2769C22.6879 50.0184 22.2063 49.5212 22.202 48.9076Z" fill="#FEBF0F" stroke="#FEBF0F" stroke-width="1.92077" stroke-linecap="round" stroke-linejoin="round"/>
<path d="M37.0938 42.0155C38.5296 43.9127 38.5556 47.5877 37.1466 49.485" stroke="#FEBF0F" stroke-width="1.92077" stroke-linecap="round" stroke-linejoin="round"/>
<path d="M40.2695 38.2806C44.5539 42.344 44.6279 49.1829 40.3753 53.2196" stroke="#FEBF0F" stroke-width="1.92077" stroke-linecap="round" stroke-linejoin="round"/>
<path d="M65.8327 1.74498L420.048 1.74498L420.039 0.464497L65.8236 0.464497L65.8327 1.74498ZM420.671 89.7555H66.4559L66.465 91.036H420.68L420.671 89.7555Z" fill="#F4F4F4"/>
<path d="M68.3794 38.6725C67.8279 38.6725 67.4651 38.2898 67.461 37.7159L67.3573 23.0741C67.3529 22.4552 67.7551 22.0275 68.329 22.0275C68.903 22.0275 69.3112 22.4552 69.3156 23.0741L69.3556 28.7238H69.4006C70.1339 27.3845 71.4899 26.563 73.1443 26.563C76.093 26.563 78.1019 28.9488 78.1279 32.6177C78.154 36.2978 76.19 38.6725 73.1963 38.6725C71.4856 38.6725 70.1404 37.8397 69.3656 36.4892H69.3206L69.3292 37.7159C69.3332 38.2786 68.9421 38.6725 68.3794 38.6725ZM72.8015 36.9506C74.8723 36.9506 76.1436 35.2962 76.1246 32.6177C76.1058 29.9617 74.8109 28.2848 72.7401 28.2848C70.7593 28.2848 69.3535 30.018 69.3719 32.6177C69.3904 35.2287 70.8207 36.9506 72.8015 36.9506ZM85.0585 38.6725C81.6034 38.6725 79.5618 36.4442 79.5351 32.6627C79.5089 28.9714 81.5739 26.563 84.804 26.563C87.7977 26.563 89.9181 28.8025 89.9408 32.01C89.9459 32.719 89.5437 33.1467 88.8685 33.1467H81.553C81.5698 35.5101 82.8744 36.9731 84.9677 36.9731C86.3633 36.9731 87.2151 36.4779 88.1173 35.1499C88.3179 34.8686 88.5422 34.756 88.8461 34.756C89.3638 34.756 89.7151 35.0936 89.7187 35.6113C89.7199 35.7689 89.665 35.9715 89.5765 36.1853C88.8337 37.7721 87.1969 38.6725 85.0585 38.6725ZM81.5534 31.6161H87.9122C87.8529 29.5903 86.5942 28.2623 84.7822 28.2623C82.959 28.2623 81.663 29.6016 81.5534 31.6161ZM95.3789 38.6725C93.0492 38.6725 91.4749 37.2657 91.46 35.1612C91.4458 33.1579 92.9788 31.8974 95.6787 31.7399L99.0425 31.5486L99.0355 30.5695C99.0254 29.1402 98.074 28.2848 96.4533 28.2848C95.1816 28.2848 94.3182 28.7463 93.6737 29.9055C93.4959 30.2318 93.2381 30.3781 92.8667 30.3781C92.3602 30.3781 91.9976 30.0292 91.9939 29.5003C91.9921 29.2527 92.0689 28.9714 92.2245 28.69C92.8794 27.407 94.5841 26.563 96.4861 26.563C99.2322 26.563 100.976 28.0485 100.992 30.3781L101.044 37.6821C101.048 38.2673 100.669 38.6725 100.128 38.6725C99.5768 38.6725 99.1913 38.2673 99.1872 37.6821L99.1785 36.4554H99.1335C98.4452 37.7947 96.9545 38.6725 95.3789 38.6725ZM95.806 37.0069C97.6518 37.0069 99.0719 35.7126 99.06 34.0245L99.0532 33.0679L95.9146 33.2592C94.3397 33.3605 93.4442 34.0583 93.452 35.1612C93.4599 36.2753 94.3992 37.0069 95.806 37.0069ZM104.518 38.6725C103.944 38.6725 103.535 38.2448 103.531 37.6258L103.46 27.5533C103.456 26.9681 103.835 26.563 104.376 26.563C104.916 26.563 105.301 26.9681 105.305 27.5533L105.313 28.6787H105.358C105.687 27.4633 106.829 26.563 107.999 26.563C108.427 26.563 108.732 26.6642 108.924 26.8443C109.094 27.0019 109.175 27.227 109.177 27.4971C109.179 27.8009 109.079 28.026 108.878 28.1836C108.676 28.3524 108.373 28.4312 107.945 28.4312C106.178 28.4312 105.433 29.7029 105.444 31.1997L105.489 37.6258C105.494 38.2448 105.092 38.6725 104.518 38.6725Z" fill="black"/>
<path d="M68.696 69.0302C68.077 69.0302 67.6803 68.6251 67.6757 67.9836L67.6077 58.3725C67.6031 57.731 67.9942 57.3258 68.6132 57.3258H72.6085C74.8031 57.3258 76.1505 58.4625 76.1636 60.3195C76.1721 61.5124 75.3358 62.6153 74.2569 62.8404L74.2576 62.9304C75.7334 63.133 76.7088 64.2022 76.7192 65.6652C76.7338 67.736 75.2124 69.0302 72.7252 69.0302H68.696ZM69.5705 62.1877H72.0802C73.5545 62.1877 74.2598 61.6474 74.2518 60.522C74.2445 59.4866 73.5764 58.9127 72.3496 58.9127H69.5473L69.5705 62.1877ZM69.6077 67.4434H72.6239C74.0419 67.4434 74.8027 66.8019 74.7943 65.6202C74.7855 64.371 73.9596 63.7632 72.2489 63.7632H69.5816L69.6077 67.4434ZM83.9023 69.2328C80.4472 69.2328 78.4056 67.0045 78.3788 63.223C78.3527 59.5317 80.4177 57.1233 83.6477 57.1233C86.6414 57.1233 88.7619 59.3628 88.7846 62.5703C88.7896 63.2793 88.3875 63.707 87.7122 63.707H80.3968C80.4135 66.0704 81.7181 67.5334 83.8115 67.5334C85.207 67.5334 86.0589 67.0382 86.9611 65.7102C87.1617 65.4289 87.386 65.3163 87.6898 65.3163C88.2075 65.3163 88.5588 65.6539 88.5625 66.1716C88.5636 66.3292 88.5088 66.5318 88.4202 66.7456C87.6774 68.3324 86.0407 69.2328 83.9023 69.2328ZM80.3972 62.1764H86.756C86.6966 60.1506 85.438 58.8226 83.626 58.8226C81.8028 58.8226 80.5067 60.1619 80.3972 62.1764ZM90.5645 72.3502C90.0243 72.3502 89.6392 72.0013 89.6355 71.4836L89.6142 68.4675C89.6096 67.826 90.0007 67.4209 90.6197 67.4209H90.6534C91.5048 66.8581 91.8433 65.3951 91.9447 63.8195L92.2888 58.3725C92.3292 57.731 92.6753 57.3258 93.2943 57.3258H99.3942C100.013 57.3258 100.41 57.731 100.415 58.3725L100.479 67.4209H101.323C101.942 67.4209 102.338 67.826 102.343 68.4675L102.364 71.4836C102.368 72.0013 102.01 72.3502 101.47 72.3502C100.93 72.3502 100.545 72.0013 100.541 71.4836L100.524 69.0302H91.4414L91.4587 71.4836C91.4624 72.0013 91.1047 72.3502 90.5645 72.3502ZM98.5316 67.4209L98.4715 58.9352H94.0822L93.757 63.8645C93.666 65.3163 93.3711 66.588 92.8249 67.3308L92.8255 67.4209H98.5316ZM105.083 69.2328C104.521 69.2328 104.101 68.8614 104.098 68.3212L104.028 58.4963C104.022 57.6297 104.514 57.1233 105.358 57.1233C106.089 57.1233 106.451 57.4046 106.852 58.2937L110.623 66.4417H110.713L114.403 58.2937C114.802 57.4046 115.138 57.1233 115.824 57.1233C116.68 57.1233 117.122 57.5959 117.128 58.485L117.198 68.3212C117.202 68.8614 116.799 69.2328 116.236 69.2328C115.674 69.2328 115.255 68.8614 115.251 68.3212L115.197 60.7246H115.118L111.737 67.9386C111.482 68.4675 111.157 68.7038 110.639 68.7038C110.11 68.7038 109.794 68.49 109.542 67.9611L106.058 60.7246H105.98L106.033 68.3212C106.037 68.8614 105.646 69.2328 105.083 69.2328ZM120.944 55.3563C120.28 55.3563 119.724 54.8049 119.72 54.1409C119.715 53.4656 120.263 52.9254 120.927 52.9254C121.602 52.9254 122.157 53.4656 122.162 54.1409C122.167 54.8049 121.619 55.3563 120.944 55.3563ZM121.042 69.2328C120.468 69.2328 120.06 68.8051 120.056 68.1861L119.985 58.1699C119.98 57.5509 120.382 57.1233 120.956 57.1233C121.53 57.1233 121.939 57.5509 121.943 58.1699L122.014 68.1861C122.018 68.8051 121.616 69.2328 121.042 69.2328ZM124.666 72.3502C124.125 72.3502 123.74 72.0013 123.737 71.4836L123.715 68.4675C123.711 67.826 124.102 67.4209 124.721 67.4209H124.755C125.606 66.8581 125.944 65.3951 126.046 63.8195L126.39 58.3725C126.43 57.731 126.776 57.3258 127.395 57.3258H133.495C134.114 57.3258 134.511 57.731 134.516 58.3725L134.58 67.4209H135.424C136.043 67.4209 136.44 67.826 136.444 68.4675L136.465 71.4836C136.469 72.0013 136.111 72.3502 135.571 72.3502C135.031 72.3502 134.646 72.0013 134.642 71.4836L134.625 69.0302H125.542L125.56 71.4836C125.564 72.0013 125.206 72.3502 124.666 72.3502ZM132.633 67.4209L132.573 58.9352H128.183L127.858 63.8645C127.767 65.3163 127.472 66.588 126.926 67.3308L126.927 67.4209H132.633ZM139.217 69.0302C138.598 69.0302 138.201 68.6251 138.196 67.9836L138.126 58.0348C138.122 57.4946 138.513 57.1233 139.076 57.1233C139.639 57.1233 140.058 57.4946 140.062 58.0348L140.083 61.0622H142.3C144.979 61.0622 146.712 62.6041 146.729 65.0462C146.746 67.4884 145.035 69.0302 142.357 69.0302H139.217ZM140.128 67.4209H142.312C143.831 67.4209 144.803 66.4755 144.793 65.0462C144.783 63.6057 143.786 62.6716 142.278 62.6716H140.095L140.128 67.4209Z" fill="#969696"/>
<path d="M398.098 29.5973C398.603 29.3156 399.173 29.1678 399.753 29.1678C400.333 29.1678 400.905 29.3156 401.414 29.5973L413.412 36.2353C413.947 36.531 414.394 36.9639 414.706 37.489C415.019 38.014 415.186 38.6122 415.19 39.2214L415.283 52.2754C415.287 52.8843 415.128 53.4821 414.823 54.0068C414.518 54.5316 414.077 54.9642 413.547 55.2598L401.642 61.9012C401.137 62.1829 400.568 62.3306 399.988 62.3306C399.408 62.3306 398.836 62.1829 398.327 61.9012L386.328 55.2598C385.794 54.9643 385.348 54.532 385.035 54.0076C384.722 53.4832 384.555 52.8857 384.55 52.2771L384.458 39.2214C384.453 38.6122 384.612 38.014 384.917 37.489C385.222 36.9639 385.663 36.531 386.194 36.2353L398.098 29.5973Z" stroke="#F4F4F4" stroke-width="4.48179" stroke-linecap="round" stroke-linejoin="round"/>
<path d="M401.416 29.5972L413.414 36.2352C413.949 36.5309 414.396 36.9638 414.709 37.4889C415.021 38.0139 415.188 38.6121 415.192 39.2213L415.285 52.2753C415.289 52.8842 415.13 53.482 414.825 54.0067C414.52 54.5315 414.079 54.9641 413.549 55.2597L401.645 61.9011" stroke="#FFDA57" stroke-width="4.48179" stroke-linecap="round" stroke-linejoin="round"/>
</svg>
