<svg width="441" height="91" viewBox="0 0 441 91" fill="none" xmlns="http://www.w3.org/2000/svg">
<rect width="439.215" height="89.2933" rx="24" transform="matrix(1 0 0.00708154 0.999975 0.279297 1.01685)" fill="white"/>
<path d="M22.202 48.8197L22.1572 42.5038C22.1529 41.8913 22.6274 41.394 23.2165 41.394H27.0431C27.1843 41.3935 27.3237 41.3644 27.453 41.3085C27.5822 41.2525 27.6986 41.1709 27.7952 41.0686L30.9709 37.4533C31.6382 36.7533 32.7909 37.2495 32.7979 38.2387L32.9031 53.0859C32.9102 54.0825 31.7505 54.5744 31.0774 53.8605L27.8614 50.2656C27.7631 50.1603 27.6443 50.0762 27.5125 50.0186C27.3806 49.9609 27.2385 49.931 27.095 49.9305H23.2769C22.6879 49.9305 22.2063 49.4333 22.202 48.8197Z" fill="#FEBF0F" stroke="#FEBF0F" stroke-width="1.92077" stroke-linecap="round" stroke-linejoin="round"/>
<path d="M37.0938 41.9276C38.5296 43.8249 38.5556 47.4998 37.1466 49.3971" stroke="#FEBF0F" stroke-width="1.92077" stroke-linecap="round" stroke-linejoin="round"/>
<path d="M40.2695 38.1927C44.5539 42.2561 44.6279 49.095 40.3753 53.1317" stroke="#FEBF0F" stroke-width="1.92077" stroke-linecap="round" stroke-linejoin="round"/>
<path d="M65.8327 1.65709H420.048L420.039 0.376606H65.8236L65.8327 1.65709ZM420.671 89.6677H66.4559L66.465 90.9481H420.68L420.671 89.6677Z" fill="#F4F4F4"/>
<path d="M67.9762 35.681L67.9238 28.287H66.9447C66.3819 28.287 66.0647 27.9944 66.0611 27.4767C66.0575 26.9702 66.3706 26.6776 66.9333 26.6776H67.9124L67.8982 24.6744C67.8938 24.0554 68.296 23.6277 68.87 23.6277C69.4439 23.6277 69.8521 24.0554 69.8565 24.6744L69.8707 26.6776H71.3788C71.9415 26.6776 72.2587 26.9702 72.2623 27.4767C72.266 27.9944 71.9529 28.287 71.3902 28.287H69.8821L69.9314 35.2533C69.9384 36.2437 70.2907 36.7164 71.2703 36.7839L71.4392 36.7952C72.081 36.8402 72.3755 37.099 72.3787 37.5605C72.383 38.1569 72.0476 38.4721 70.9559 38.4721H70.8321C68.9413 38.4721 67.9894 37.5492 67.9762 35.681ZM75.3039 24.7082C74.6399 24.7082 74.0845 24.1567 74.0798 23.4927C74.0751 22.8174 74.6227 22.2772 75.2867 22.2772C75.962 22.2772 76.5173 22.8174 76.5221 23.4927C76.5268 24.1567 75.9792 24.7082 75.3039 24.7082ZM75.4022 38.5846C74.8282 38.5846 74.42 38.1569 74.4156 37.538L74.3447 27.5217C74.3403 26.9027 74.7425 26.4751 75.3164 26.4751C75.8904 26.4751 76.2986 26.9027 76.303 27.5217L76.3739 37.538C76.3783 38.1569 75.9762 38.5846 75.4022 38.5846ZM83.7828 42.7937C81.8244 42.7712 80.187 41.9946 79.3563 40.7004C79.1969 40.4528 79.1278 40.2277 79.126 39.9689C79.1225 39.4737 79.4801 39.1248 79.9979 39.1248C80.3242 39.1248 80.5164 39.2373 80.8226 39.575C81.8321 40.6779 82.6567 41.1055 83.8498 41.128C85.9434 41.1618 87.2066 39.9576 87.1943 38.2132L87.1812 36.3675H87.1362C86.4249 37.6392 85.0352 38.4721 83.3921 38.4721C80.4096 38.4721 78.4347 36.1199 78.409 32.4848C78.383 28.8159 80.3247 26.4751 83.3521 26.4751C85.0066 26.4751 86.3066 27.2854 87.0924 28.6021H87.1262L87.1183 27.4879C87.114 26.8802 87.5276 26.4751 88.0903 26.4751C88.653 26.4751 89.0723 26.8802 89.0766 27.4879L89.1521 38.1457C89.1718 40.9367 87.1144 42.8274 83.7828 42.7937ZM83.7738 36.7502C85.8109 36.7502 87.172 35.062 87.1537 32.4848C87.1355 29.9076 85.7503 28.197 83.7132 28.197C81.6987 28.197 80.3937 29.8626 80.4123 32.4848C80.4308 35.107 81.7592 36.7502 83.7738 36.7502ZM96.6057 38.5846C93.1505 38.5846 91.1089 36.3563 91.0822 32.5748C91.056 28.8835 93.121 26.4751 96.3511 26.4751C99.3448 26.4751 101.465 28.7147 101.488 31.9221C101.493 32.6311 101.091 33.0588 100.416 33.0588H93.1001C93.1169 35.4222 94.4215 36.8852 96.5148 36.8852C97.9104 36.8852 98.7622 36.39 99.6644 35.062C99.865 34.7807 100.089 34.6681 100.393 34.6681C100.911 34.6681 101.262 35.0058 101.266 35.5234C101.267 35.681 101.212 35.8836 101.124 36.0974C100.381 37.6843 98.744 38.5846 96.6057 38.5846ZM93.1006 31.5282H99.4593C99.4 29.5024 98.1413 28.1744 96.3294 28.1744C94.5061 28.1744 93.2101 29.5137 93.1006 31.5282ZM104.495 38.5846C103.921 38.5846 103.513 38.1569 103.509 37.538L103.437 27.4654C103.433 26.8802 103.813 26.4751 104.353 26.4751C104.893 26.4751 105.279 26.8802 105.283 27.4654L105.291 28.5909H105.336C105.665 27.3754 106.807 26.4751 107.977 26.4751C108.405 26.4751 108.709 26.5763 108.902 26.7564C109.072 26.914 109.152 27.1391 109.154 27.4092C109.156 27.713 109.057 27.9381 108.855 28.0957C108.654 28.2645 108.35 28.3433 107.923 28.3433C106.156 28.3433 105.411 29.615 105.421 31.1118L105.467 37.538C105.471 38.1569 105.069 38.5846 104.495 38.5846Z" fill="black"/>
<path d="M71.4886 69.1449C70.9259 69.1449 70.5293 68.7735 70.5255 68.2333L70.459 58.8473H67.274C66.8238 58.8473 66.5065 58.5322 66.5031 58.0595C66.4998 57.5868 66.8124 57.2379 67.2626 57.2379H75.5684C76.0186 57.2379 76.3362 57.5868 76.3396 58.0595C76.3429 58.5322 76.03 58.8473 75.5798 58.8473H72.3948L72.4613 68.2333C72.4651 68.7735 72.0513 69.1449 71.4886 69.1449ZM79.1191 69.1449C78.4326 69.1449 78.0583 68.7285 78.0534 68.042L77.9826 58.0482C77.9783 57.4405 78.3806 57.0354 78.9433 57.0354C79.5061 57.0354 79.9141 57.4405 79.9184 58.0482L79.9744 65.9487H80.0644L85.4429 57.8457C85.8438 57.2379 86.18 57.0354 86.7202 57.0354C87.373 57.0354 87.7923 57.4518 87.7972 58.1383L87.868 68.132C87.8723 68.7397 87.47 69.1449 86.9072 69.1449C86.3445 69.1449 85.9365 68.7397 85.9322 68.132L85.8762 60.2316H85.7862L80.3964 68.3346C79.9956 68.9423 79.6594 69.1449 79.1191 69.1449ZM91.5779 69.1449C91.0151 69.1449 90.6186 68.7735 90.6148 68.2333L90.5443 58.2846C90.5398 57.6431 90.9308 57.2379 91.5498 57.2379H97.4697C97.9199 57.2379 98.2373 57.5643 98.2407 58.0482C98.2441 58.5209 97.9313 58.8473 97.4811 58.8473H92.4841L92.5505 68.2333C92.5544 68.7735 92.1406 69.1449 91.5779 69.1449ZM101.296 73.0726C100.722 73.0726 100.314 72.645 100.309 72.026L100.21 58.0257C100.206 57.4405 100.586 57.0354 101.137 57.0354C101.677 57.0354 102.063 57.4405 102.067 58.0257L102.076 59.2187H102.121C102.832 57.9019 104.187 57.0354 105.887 57.0354C108.869 57.0354 110.912 59.4213 110.938 63.0901C110.964 66.759 108.966 69.1449 106.017 69.1449C104.34 69.1449 102.984 68.3233 102.277 67.0404H102.232L102.268 72.026C102.272 72.645 101.87 73.0726 101.296 73.0726ZM105.578 67.423C107.66 67.423 108.953 65.7461 108.934 63.0901C108.916 60.4454 107.598 58.7573 105.516 58.7573C103.513 58.7573 102.175 60.4904 102.193 63.0901C102.211 65.7011 103.574 67.423 105.578 67.423Z" fill="#969696"/>
<path d="M398.098 29.5094C398.603 29.2277 399.173 29.08 399.753 29.08C400.333 29.08 400.905 29.2277 401.414 29.5094L413.412 36.1474C413.947 36.4432 414.394 36.876 414.706 37.4011C415.019 37.9261 415.186 38.5243 415.19 39.1335L415.283 52.1875C415.287 52.7964 415.128 53.3942 414.823 53.919C414.518 54.4437 414.077 54.8763 413.547 55.1719L401.642 61.8133C401.137 62.095 400.568 62.2428 399.988 62.2428C399.408 62.2428 398.836 62.095 398.327 61.8133L386.328 55.1719C385.794 54.8764 385.348 54.4441 385.035 53.9197C384.722 53.3953 384.555 52.7979 384.55 52.1892L384.458 39.1335C384.453 38.5243 384.612 37.9261 384.917 37.4011C385.222 36.876 385.663 36.4432 386.194 36.1474L398.098 29.5094Z" stroke="#F4F4F4" stroke-width="4.48179" stroke-linecap="round" stroke-linejoin="round"/>
<path d="M401.416 29.5093L413.414 36.1473" stroke="#FF544E" stroke-width="4.48179" stroke-linecap="round" stroke-linejoin="round"/>
</svg>
