<svg width="441" height="92" viewBox="0 0 441 92" fill="none" xmlns="http://www.w3.org/2000/svg">
<rect width="439.215" height="89.2933" rx="24" transform="matrix(1 0 0.00708157 0.999975 0.279297 1.19287)" fill="white"/>
<path d="M22.202 48.9957L22.1572 42.6798C22.1529 42.0673 22.6274 41.57 23.2165 41.57H27.0431C27.1843 41.5695 27.3237 41.5404 27.453 41.4845C27.5822 41.4286 27.6986 41.347 27.7952 41.2446L30.9709 37.6294C31.6382 36.9294 32.7909 37.4256 32.7979 38.4147L32.9031 53.2619C32.9102 54.2585 31.7505 54.7504 31.0774 54.0366L27.8614 50.4416C27.7631 50.3363 27.6443 50.2522 27.5125 50.1946C27.3806 50.137 27.2385 50.107 27.095 50.1066H23.2769C22.6879 50.1066 22.2063 49.6093 22.202 48.9957Z" fill="#FEBF0F" stroke="#FEBF0F" stroke-width="1.92077" stroke-linecap="round" stroke-linejoin="round"/>
<path d="M37.0938 42.1036C38.5296 44.0009 38.5556 47.6759 37.1466 49.5731" stroke="#FEBF0F" stroke-width="1.92077" stroke-linecap="round" stroke-linejoin="round"/>
<path d="M40.2695 38.3688C44.5539 42.4322 44.6279 49.271 40.3753 53.3077" stroke="#FEBF0F" stroke-width="1.92077" stroke-linecap="round" stroke-linejoin="round"/>
<path d="M65.8327 1.83311L420.048 1.83311L420.039 0.552631L65.8236 0.552631L65.8327 1.83311ZM420.671 89.8437H66.4559L66.465 91.1242H420.68L420.671 89.8437Z" fill="#F4F4F4"/>
<path d="M68.1529 38.558C67.5226 38.558 67.1035 38.1754 67.0993 37.5902C67.097 37.2526 67.1743 37.05 67.4196 36.7236L73.5288 28.4968L73.5286 28.463H67.8225C67.2598 28.463 66.9426 28.1704 66.9389 27.6527C66.9353 27.1463 67.2484 26.8537 67.8111 26.8537H74.5863C75.3291 26.8537 75.7594 27.2251 75.7639 27.8553C75.7663 28.1929 75.6443 28.4518 75.3099 28.9019L69.368 36.9149L69.3682 36.9487H75.0855C75.6482 36.9487 75.9654 37.2413 75.969 37.7477C75.9727 38.2654 75.6596 38.558 75.0969 38.558H68.1529ZM82.6051 38.7606C79.1499 38.7606 77.1084 36.5323 77.0816 32.7509C77.0554 29.0595 79.1205 26.6511 82.3505 26.6511C85.3442 26.6511 87.4646 28.8907 87.4874 32.0981C87.4924 32.8071 87.0902 33.2348 86.415 33.2348H79.0996C79.1163 35.5982 80.4209 37.0612 82.5143 37.0612C83.9098 37.0612 84.7616 36.566 85.6639 35.2381C85.8644 34.9567 86.0887 34.8442 86.3926 34.8442C86.9103 34.8442 87.2616 35.1818 87.2653 35.6995C87.2664 35.857 87.2115 36.0596 87.123 36.2734C86.3802 37.8603 84.7434 38.7606 82.6051 38.7606ZM79.1 31.7042H85.4588C85.3994 29.6785 84.1407 28.3505 82.3288 28.3505C80.5055 28.3505 79.2095 29.6897 79.1 31.7042ZM90.5282 38.7606C89.9768 38.7606 89.6139 38.378 89.6098 37.804L89.5062 23.1623C89.5018 22.5433 89.9039 22.1156 90.4779 22.1156C91.0519 22.1156 91.4601 22.5433 91.4644 23.1623L91.5044 28.8119H91.5495C92.2828 27.4726 93.6388 26.6511 95.2932 26.6511C98.2418 26.6511 100.251 29.037 100.277 32.7059C100.303 36.386 98.3389 38.7606 95.3452 38.7606C93.6345 38.7606 92.2893 37.9278 91.5144 36.5773H91.4694L91.4781 37.804C91.4821 38.3667 91.091 38.7606 90.5282 38.7606ZM94.9503 37.0387C97.0211 37.0387 98.2924 35.3844 98.2735 32.7059C98.2547 30.0499 96.9598 28.373 94.8889 28.373C92.9082 28.373 91.5024 30.1061 91.5208 32.7059C91.5393 35.3168 92.9695 37.0387 94.9503 37.0387ZM103.28 38.7606C102.706 38.7606 102.297 38.333 102.293 37.714L102.222 27.6415C102.218 27.0562 102.597 26.6511 103.138 26.6511C103.678 26.6511 104.063 27.0562 104.067 27.6415L104.075 28.7669H104.12C104.449 27.5514 105.591 26.6511 106.761 26.6511C107.189 26.6511 107.494 26.7524 107.686 26.9324C107.856 27.09 107.937 27.3151 107.939 27.5852C107.941 27.8891 107.841 28.1141 107.64 28.2717C107.438 28.4405 107.135 28.5193 106.707 28.5193C104.94 28.5193 104.195 29.791 104.206 31.2878L104.251 37.714C104.256 38.333 103.854 38.7606 103.28 38.7606ZM112.598 38.7606C110.269 38.7606 108.694 37.3538 108.679 35.2493C108.665 33.2461 110.198 31.9856 112.898 31.828L116.262 31.6367L116.255 30.6576C116.245 29.2283 115.293 28.373 113.673 28.373C112.401 28.373 111.538 28.8344 110.893 29.9936C110.715 30.32 110.457 30.4663 110.086 30.4663C109.58 30.4663 109.217 30.1174 109.213 29.5884C109.212 29.3408 109.288 29.0595 109.444 28.7781C110.099 27.4952 111.804 26.6511 113.706 26.6511C116.452 26.6511 118.195 28.1366 118.212 30.4663L118.264 37.7702C118.268 38.3555 117.888 38.7606 117.348 38.7606C116.796 38.7606 116.411 38.3555 116.407 37.7702L116.398 36.5435H116.353C115.665 37.8828 114.174 38.7606 112.598 38.7606ZM113.025 37.095C114.871 37.095 116.291 35.8008 116.279 34.1126L116.273 33.156L113.134 33.3473C111.559 33.4486 110.664 34.1464 110.671 35.2493C110.679 36.3635 111.619 37.095 113.025 37.095Z" fill="black"/>
<path d="M71.5899 69.3209C69.6203 69.3209 68.0284 68.6007 67.3554 67.3402C67.2299 67.1038 67.1607 66.8562 67.1591 66.6312C67.1553 66.1022 67.5243 65.7646 68.042 65.7646C68.4472 65.7646 68.617 65.8996 68.8899 66.2935C69.6176 67.3402 70.3292 67.7003 71.5784 67.7003C73.1991 67.7003 74.2066 66.9463 74.1982 65.7533C74.1889 64.4478 73.3405 63.8401 71.5511 63.8401H70.4256C69.9754 63.8401 69.6581 63.525 69.6547 63.0523C69.6513 62.5684 69.9641 62.242 70.4143 62.242H71.5398C73.0366 62.242 73.7753 61.6681 73.7673 60.5314C73.7597 59.4622 72.9563 58.8433 71.5607 58.8433C70.2889 58.8433 69.56 59.2146 69.0829 60.1825C68.8278 60.7002 68.615 60.8578 68.1649 60.8578C67.6584 60.8578 67.3297 60.5314 67.326 60.0137C67.324 59.7211 67.3674 59.496 67.4894 59.2371C68.0766 57.9317 69.6021 57.2114 71.5491 57.2114C74.1039 57.2114 75.6655 58.4043 75.6794 60.3738C75.6879 61.5668 74.9413 62.6247 73.7728 62.8948L73.7734 62.9848C75.2726 63.3112 76.1122 64.2678 76.1221 65.6633C76.1376 67.8579 74.3247 69.3209 71.5899 69.3209ZM83.3171 69.3209C79.8619 69.3209 77.8203 67.0926 77.7936 63.3112C77.7674 59.6198 79.8325 57.2114 83.0625 57.2114C86.0562 57.2114 88.1766 59.451 88.1994 62.6584C88.2044 63.3674 87.8022 63.7951 87.127 63.7951H79.8115C79.8283 66.1585 81.1329 67.6215 83.2262 67.6215C84.6218 67.6215 85.4736 67.1264 86.3759 65.7984C86.5764 65.517 86.8007 65.4045 87.1046 65.4045C87.6223 65.4045 87.9736 65.7421 87.9773 66.2598C87.9784 66.4173 87.9235 66.6199 87.835 66.8337C87.0922 68.4206 85.4554 69.3209 83.3171 69.3209ZM79.812 62.2645H86.1708C86.1114 60.2388 84.8527 58.9108 83.0408 58.9108C81.2175 58.9108 79.9215 60.25 79.812 62.2645ZM95.4382 69.3209C91.8367 69.3209 89.9287 66.89 89.896 62.2645C89.8498 55.7371 91.5981 53.1149 96.0988 52.946C97.5839 52.8898 98.2583 52.7547 98.674 52.6647C98.9212 52.6084 99.056 52.5634 99.2473 52.5634C99.765 52.5634 100.093 52.856 100.097 53.3512C100.1 53.8239 99.7651 54.1728 99.1365 54.3978C98.6537 54.5667 97.9228 54.6567 96.2013 54.713C93.1408 54.8142 92.024 56.0297 91.544 59.7661H91.634C92.3672 58.4156 93.8025 57.6616 95.6482 57.6616C98.8107 57.6616 100.841 59.8899 100.866 63.3787C100.892 67.0588 98.8258 69.3209 95.4382 69.3209ZM95.4259 67.5878C97.6318 67.5878 98.8814 66.0572 98.8625 63.3787C98.8444 60.8352 97.5736 59.3722 95.3677 59.3722C93.1506 59.3722 91.9004 60.8352 91.9184 63.3787C91.9374 66.0572 93.2087 67.5878 95.4259 67.5878ZM104.109 73.2486C103.535 73.2486 103.127 72.821 103.123 72.202L103.024 58.2018C103.02 57.6165 103.399 57.2114 103.951 57.2114C104.491 57.2114 104.877 57.6165 104.881 58.2018L104.889 59.3947H104.934C105.645 58.078 107.001 57.2114 108.7 57.2114C111.683 57.2114 113.725 59.5973 113.751 63.2662C113.777 66.935 111.78 69.3209 108.831 69.3209C107.154 69.3209 105.798 68.4994 105.091 67.2164H105.046L105.081 72.202C105.086 72.821 104.683 73.2486 104.109 73.2486ZM108.391 67.599C110.473 67.599 111.767 65.9221 111.748 63.2662C111.729 60.6214 110.412 58.9333 108.33 58.9333C106.326 58.9333 104.988 60.6664 105.007 63.2662C105.025 65.8771 106.388 67.599 108.391 67.599ZM119.388 69.3209C117.058 69.3209 115.484 67.9141 115.469 65.8096C115.455 63.8064 116.988 62.5459 119.688 62.3883L123.051 62.197L123.044 61.2179C123.034 59.7886 122.083 58.9333 120.462 58.9333C119.19 58.9333 118.327 59.3947 117.682 60.5539C117.505 60.8803 117.247 61.0266 116.875 61.0266C116.369 61.0266 116.006 60.6777 116.003 60.1487C116.001 59.9011 116.078 59.6198 116.233 59.3384C116.888 58.0555 118.593 57.2114 120.495 57.2114C123.241 57.2114 124.985 58.6969 125.001 61.0266L125.053 68.3306C125.057 68.9158 124.677 69.3209 124.137 69.3209C123.586 69.3209 123.2 68.9158 123.196 68.3306L123.187 67.1038H123.142C122.454 68.4431 120.963 69.3209 119.388 69.3209ZM119.815 67.6553C121.661 67.6553 123.081 66.3611 123.069 64.6729L123.062 63.7163L119.923 63.9076C118.348 64.0089 117.453 64.7067 117.461 65.8096C117.469 66.9238 118.408 67.6553 119.815 67.6553Z" fill="#969696"/>
<path d="M398.098 29.6854C398.603 29.4038 399.173 29.256 399.753 29.256C400.333 29.256 400.905 29.4038 401.414 29.6854L413.412 36.3234C413.947 36.6192 414.394 37.052 414.706 37.5771C415.019 38.1022 415.186 38.7003 415.19 39.3095L415.283 52.3636C415.287 52.9725 415.128 53.5702 414.823 54.095C414.518 54.6197 414.077 55.0523 413.547 55.3479L401.642 61.9893C401.137 62.271 400.568 62.4188 399.988 62.4188C399.408 62.4188 398.836 62.271 398.327 61.9893L386.328 55.3479C385.794 55.0524 385.348 54.6201 385.035 54.0957C384.722 53.5713 384.555 52.9739 384.55 52.3653L384.458 39.3095C384.453 38.7003 384.612 38.1022 384.917 37.5771C385.222 37.052 385.663 36.6192 386.194 36.3234L398.098 29.6854Z" stroke="#F4F4F4" stroke-width="4.48179" stroke-linecap="round" stroke-linejoin="round"/>
<path d="M401.416 29.6853L413.414 36.3233C413.949 36.6191 414.396 37.0519 414.708 37.577C415.021 38.102 415.188 38.7002 415.192 39.3094L415.284 52.3634C415.289 52.9723 415.13 53.5701 414.825 54.0949C414.52 54.6196 414.079 55.0522 413.549 55.3478L401.644 61.9892C401.139 62.2709 400.57 62.4187 399.99 62.4187C399.409 62.4187 398.838 62.2709 398.329 61.9892L386.33 55.3478" stroke="#77C801" stroke-width="4.48179" stroke-linecap="round" stroke-linejoin="round"/>
</svg>
