<svg width="441" height="92" viewBox="0 0 441 92" fill="none" xmlns="http://www.w3.org/2000/svg">
<rect width="439.215" height="89.2933" rx="24" transform="matrix(1 0 0.00708157 0.999975 0.279297 1.45703)" fill="white"/>
<path d="M22.202 49.2599L22.1572 42.9439C22.1529 42.3314 22.6274 41.8342 23.2165 41.8342H27.0431C27.1843 41.8337 27.3237 41.8046 27.453 41.7487C27.5822 41.6927 27.6986 41.6111 27.7952 41.5087L30.9709 37.8935C31.6382 37.1935 32.7909 37.6897 32.7979 38.6789L32.9031 53.526C32.9102 54.5227 31.7505 55.0146 31.0774 54.3007L27.8614 50.7058C27.7631 50.6005 27.6443 50.5164 27.5125 50.4588C27.3806 50.4011 27.2385 50.3712 27.095 50.3707H23.2769C22.6879 50.3707 22.2063 49.8735 22.202 49.2599Z" fill="#FEBF0F" stroke="#FEBF0F" stroke-width="1.92077" stroke-linecap="round" stroke-linejoin="round"/>
<path d="M37.0938 42.3678C38.5296 44.265 38.5556 47.94 37.1466 49.8373" stroke="#FEBF0F" stroke-width="1.92077" stroke-linecap="round" stroke-linejoin="round"/>
<path d="M40.2695 38.6331C44.5539 42.6964 44.6279 49.5353 40.3753 53.572" stroke="#FEBF0F" stroke-width="1.92077" stroke-linecap="round" stroke-linejoin="round"/>
<path d="M65.8327 2.09727L420.048 2.09727L420.039 0.816792L65.8236 0.816792L65.8327 2.09727ZM420.671 90.1078H66.4559L66.465 91.3883H420.68L420.671 90.1078Z" fill="#F4F4F4"/>
<path d="M72.2734 39.0248C68.8183 39.0248 66.7767 36.7964 66.7499 33.015C66.7238 29.3236 68.7888 26.9152 72.0189 26.9152C75.0126 26.9152 77.133 29.1548 77.1557 32.3623C77.1608 33.0713 76.7586 33.499 76.0834 33.499H68.7679C68.7847 35.8623 70.0893 37.3254 72.1826 37.3254C73.5782 37.3254 74.43 36.8302 75.3322 35.5022C75.5328 35.2209 75.7571 35.1083 76.061 35.1083C76.5787 35.1083 76.93 35.4459 76.9336 35.9636C76.9348 36.1212 76.8799 36.3238 76.7914 36.5376C76.0486 38.1244 74.4118 39.0248 72.2734 39.0248ZM68.7683 31.9684H75.1271C75.0678 29.9426 73.8091 28.6146 71.9971 28.6146C70.1739 28.6146 68.8779 29.9539 68.7683 31.9684ZM80.2641 39.0248C79.6902 39.0248 79.282 38.5971 79.2776 37.9781L79.1745 23.4264C79.1701 22.8075 79.5723 22.3798 80.1463 22.3798C80.7202 22.3798 81.1284 22.8075 81.1328 23.4264L81.2359 37.9781C81.2402 38.5971 80.8381 39.0248 80.2641 39.0248ZM88.795 39.0248C85.3399 39.0248 83.2983 36.7964 83.2715 33.015C83.2454 29.3236 85.3104 26.9152 88.5405 26.9152C91.5342 26.9152 93.6546 29.1548 93.6773 32.3623C93.6823 33.0713 93.2802 33.499 92.6049 33.499H85.2895C85.3063 35.8623 86.6109 37.3254 88.7042 37.3254C90.0998 37.3254 90.9516 36.8302 91.8538 35.5022C92.0544 35.2209 92.2787 35.1083 92.5826 35.1083C93.1003 35.1083 93.4516 35.4459 93.4552 35.9636C93.4563 36.1212 93.4015 36.3238 93.313 36.5376C92.5702 38.1244 90.9334 39.0248 88.795 39.0248ZM85.2899 31.9684H91.6487C91.5894 29.9426 90.3307 28.6146 88.5187 28.6146C86.6955 28.6146 85.3995 29.9539 85.2899 31.9684ZM96.7123 42.9525C96.1383 42.9525 95.7301 42.5248 95.7257 41.9059L95.6266 27.9056C95.6224 27.3204 96.0022 26.9152 96.5537 26.9152C97.0939 26.9152 97.4794 27.3204 97.4835 27.9056L97.492 29.0986H97.537C98.248 27.7818 99.6036 26.9152 101.303 26.9152C104.286 26.9152 106.328 29.3011 106.354 32.97C106.38 36.6389 104.383 39.0248 101.434 39.0248C99.7569 39.0248 98.4006 38.2032 97.6937 36.9202H97.6487L97.684 41.9059C97.6884 42.5248 97.2862 42.9525 96.7123 42.9525ZM100.994 37.3029C103.076 37.3029 104.37 35.626 104.351 32.97C104.332 30.3253 103.015 28.6371 100.933 28.6371C98.9293 28.6371 97.591 30.3703 97.6094 32.97C97.6279 35.581 98.9907 37.3029 100.994 37.3029ZM109.458 39.0248C108.884 39.0248 108.476 38.5971 108.472 37.9781L108.369 23.4039C108.364 22.7962 108.755 22.3798 109.34 22.3798C109.937 22.3798 110.323 22.7962 110.327 23.4039L110.366 28.986H110.411C111.055 27.6805 112.332 26.9152 114.111 26.9152C116.677 26.9152 118.242 28.6484 118.261 31.2594L118.308 37.9781C118.313 38.5971 117.91 39.0248 117.336 39.0248C116.762 39.0248 116.354 38.5971 116.35 37.9781L116.305 31.6195C116.292 29.7626 115.35 28.6484 113.515 28.6484C111.568 28.6484 110.373 29.9764 110.388 32.0022L110.43 37.9781C110.434 38.5971 110.032 39.0248 109.458 39.0248ZM124.213 39.0248C121.883 39.0248 120.309 37.618 120.294 35.5135C120.28 33.5102 121.813 32.2497 124.513 32.0922L127.876 31.9009L127.87 30.9217C127.859 29.4925 126.908 28.6371 125.287 28.6371C124.016 28.6371 123.152 29.0986 122.508 30.2577C122.33 30.5841 122.072 30.7304 121.701 30.7304C121.194 30.7304 120.832 30.3815 120.828 29.8526C120.826 29.605 120.903 29.3236 121.059 29.0423C121.713 27.7593 123.418 26.9152 125.32 26.9152C128.066 26.9152 129.81 28.4008 129.826 30.7304L129.878 38.0344C129.882 38.6196 129.503 39.0248 128.962 39.0248C128.411 39.0248 128.025 38.6196 128.021 38.0344L128.013 36.8077H127.967C127.279 38.147 125.789 39.0248 124.213 39.0248ZM124.64 37.3592C126.486 37.3592 127.906 36.0649 127.894 34.3768L127.887 33.4202L124.749 33.6115C123.174 33.7128 122.278 34.4106 122.286 35.5135C122.294 36.6276 123.233 37.3592 124.64 37.3592ZM133.352 39.0248C132.778 39.0248 132.369 38.5971 132.365 37.9781L132.294 27.9056C132.29 27.3204 132.669 26.9152 133.21 26.9152C133.75 26.9152 134.135 27.3204 134.139 27.9056L134.147 28.986H134.192C134.836 27.7256 136.079 26.9152 137.891 26.9152C140.457 26.9152 141.955 28.5696 141.974 31.2256L142.021 37.9781C142.026 38.5971 141.624 39.0248 141.05 39.0248C140.476 39.0248 140.067 38.5971 140.063 37.9781L140.018 31.5745C140.004 29.6838 139.108 28.6484 137.307 28.6484C135.461 28.6484 134.266 29.9539 134.281 31.9346L134.323 37.9781C134.328 38.5971 133.926 39.0248 133.352 39.0248ZM145.137 36.1212L145.085 28.7272H144.105C143.543 28.7272 143.226 28.4346 143.222 27.9169C143.218 27.4104 143.531 27.1178 144.094 27.1178H145.073L145.059 25.1146C145.055 24.4956 145.457 24.0679 146.031 24.0679C146.605 24.0679 147.013 24.4956 147.017 25.1146L147.032 27.1178H148.54C149.102 27.1178 149.42 27.4104 149.423 27.9169C149.427 28.4346 149.114 28.7272 148.551 28.7272H147.043L147.092 35.6935C147.099 36.6839 147.451 37.1566 148.431 37.2241L148.6 37.2354C149.242 37.2804 149.536 37.5392 149.54 38.0006C149.544 38.5971 149.208 38.9122 148.117 38.9122H147.993C146.102 38.9122 145.15 37.9894 145.137 36.1212Z" fill="black"/>
<path d="M72.524 69.5851C69.2827 69.5851 67.1054 67.2555 67.0791 63.5528C67.0531 59.8727 69.1744 57.4756 72.4157 57.4756C74.6216 57.4756 76.555 58.7248 77.0166 60.3454C77.0627 60.4917 77.0862 60.638 77.0871 60.7618C77.0908 61.2795 76.7668 61.6171 76.2603 61.6171C75.8327 61.6171 75.5951 61.437 75.3214 60.9306C74.6942 59.7714 73.801 59.1974 72.4504 59.1974C70.4134 59.1974 69.0524 60.9081 69.071 63.5303C69.0901 66.2201 70.4973 67.8632 72.5118 67.8632C73.9186 67.8632 74.7697 67.2555 75.3694 66.13C75.6471 65.6011 75.8598 65.4435 76.2874 65.4435C76.7939 65.4435 77.134 65.7924 77.1376 66.2989C77.1386 66.4452 77.1061 66.614 77.0511 66.794C76.4998 68.4146 74.6511 69.5851 72.524 69.5851ZM79.3657 69.4388C78.5329 69.4388 78.0012 69.0561 77.997 68.4597C77.9937 67.9982 78.2841 67.6831 78.768 67.6831H78.8918C79.8708 67.6606 80.3929 66.6927 80.5458 64.4419L80.9217 58.7248C80.962 58.0495 81.3082 57.6781 81.9272 57.6781H87.6333C88.2522 57.6781 88.649 58.0833 88.6536 58.7248L88.724 68.6735C88.7278 69.2137 88.3366 69.5851 87.7738 69.5851C87.2111 69.5851 86.7921 69.2137 86.7882 68.6735L86.7218 59.2875H82.7377L82.4019 64.3181C82.1679 67.8294 81.2114 69.4388 79.3657 69.4388ZM96.361 69.5851C93.1197 69.5851 90.9199 67.2555 90.8935 63.5303C90.867 59.7939 93.034 57.4756 96.2753 57.4756C99.5053 57.4756 101.705 59.7939 101.732 63.5303C101.758 67.2555 99.5911 69.5851 96.361 69.5851ZM96.3488 67.8632C98.4197 67.8632 99.759 66.2876 99.7395 63.5303C99.72 60.773 98.3583 59.1974 96.2875 59.1974C94.2166 59.1974 92.866 60.773 92.8855 63.5303C92.905 66.2876 94.278 67.8632 96.3488 67.8632ZM104.914 69.5851C104.34 69.5851 103.944 69.1574 103.939 68.5384L103.868 58.5222C103.864 57.9032 104.255 57.4756 104.829 57.4756C105.403 57.4756 105.8 57.9032 105.804 58.5222L105.832 62.5062H111.606L111.578 58.5222C111.573 57.9032 111.964 57.4756 112.538 57.4756C113.112 57.4756 113.509 57.9032 113.513 58.5222L113.584 68.5384C113.589 69.1574 113.198 69.5851 112.624 69.5851C112.05 69.5851 111.653 69.1574 111.648 68.5384L111.617 64.1155H105.844L105.875 68.5384C105.879 69.1574 105.488 69.5851 104.914 69.5851Z" fill="#969696"/>
<path d="M398.098 29.9495C398.603 29.6678 399.173 29.52 399.753 29.52C400.333 29.52 400.905 29.6678 401.414 29.9495L413.412 36.5875C413.947 36.8832 414.394 37.3161 414.706 37.8411C415.019 38.3662 415.186 38.9643 415.19 39.5735L415.283 52.6276C415.287 53.2365 415.128 53.8343 414.823 54.359C414.518 54.8838 414.077 55.3163 413.547 55.612L401.642 62.2534C401.137 62.535 400.568 62.6828 399.988 62.6828C399.408 62.6828 398.836 62.535 398.327 62.2534L386.328 55.612C385.794 55.3165 385.348 54.8842 385.035 54.3598C384.722 53.8353 384.555 53.2379 384.55 52.6293L384.458 39.5735C384.453 38.9643 384.612 38.3662 384.917 37.8411C385.222 37.3161 385.663 36.8832 386.194 36.5875L398.098 29.9495Z" stroke="#F4F4F4" stroke-width="4.48179" stroke-linecap="round" stroke-linejoin="round"/>
<path d="M401.416 29.9493L413.414 36.5873C413.949 36.8831 414.396 37.316 414.708 37.841C415.021 38.3661 415.188 38.9642 415.192 39.5734L415.284 52.6275C415.289 53.2364 415.13 53.8342 414.825 54.3589C414.52 54.8836 414.079 55.3162 413.549 55.6118L401.644 62.2533C401.139 62.5349 400.57 62.6827 399.99 62.6827C399.409 62.6827 398.838 62.5349 398.329 62.2533L386.33 55.6118" stroke="#77C801" stroke-width="4.48179" stroke-linecap="round" stroke-linejoin="round"/>
</svg>
