<svg width="441" height="92" viewBox="0 0 441 92" fill="none" xmlns="http://www.w3.org/2000/svg">
<rect width="439.215" height="89.2933" rx="24" transform="matrix(1 0 0.00708157 0.999975 0.279297 1.28101)" fill="white"/>
<path d="M22.202 49.0839L22.1572 42.7679C22.1529 42.1554 22.6274 41.6582 23.2165 41.6582H27.0431C27.1843 41.6577 27.3237 41.6286 27.453 41.5726C27.5822 41.5167 27.6986 41.4351 27.7952 41.3327L30.9709 37.7175C31.6382 37.0175 32.7909 37.5137 32.7979 38.5029L32.9031 53.35C32.9102 54.3467 31.7505 54.8386 31.0774 54.1247L27.8614 50.5298C27.7631 50.4245 27.6443 50.3404 27.5125 50.2827C27.3806 50.2251 27.2385 50.1951 27.095 50.1947H23.2769C22.6879 50.1947 22.2063 49.6974 22.202 49.0839Z" fill="#FEBF0F" stroke="#FEBF0F" stroke-width="1.92077" stroke-linecap="round" stroke-linejoin="round"/>
<path d="M37.0938 42.1918C38.5296 44.089 38.5556 47.764 37.1466 49.6612" stroke="#FEBF0F" stroke-width="1.92077" stroke-linecap="round" stroke-linejoin="round"/>
<path d="M40.2695 38.4569C44.5539 42.5203 44.6279 49.3591 40.3753 53.3958" stroke="#FEBF0F" stroke-width="1.92077" stroke-linecap="round" stroke-linejoin="round"/>
<path d="M65.8327 1.92125L420.048 1.92125L420.039 0.640766L65.8236 0.640766L65.8327 1.92125ZM420.671 89.9318H66.4559L66.465 91.2123H420.68L420.671 89.9318Z" fill="#F4F4F4"/>
<path d="M72.1232 43.0578C70.1647 43.0353 68.5273 42.2588 67.6966 40.9645C67.5373 40.717 67.4682 40.4919 67.4663 40.233C67.4628 39.7378 67.8205 39.389 68.3382 39.389C68.6646 39.389 68.8567 39.5015 69.163 39.8391C70.1724 40.942 70.997 41.3697 72.1902 41.3922C74.2837 41.426 75.547 40.2218 75.5346 38.4774L75.5215 36.6317H75.4765C74.7652 37.9034 73.3756 38.7362 71.7324 38.7362C68.75 38.7362 66.7751 36.3841 66.7493 32.749C66.7233 29.0801 68.665 26.7392 71.6925 26.7392C73.3469 26.7392 74.6469 27.5495 75.4328 28.8663H75.4666L75.4587 27.7521C75.4544 27.1444 75.8679 26.7392 76.4306 26.7392C76.9934 26.7392 77.4126 27.1444 77.4169 27.7521L77.4924 38.4098C77.5122 41.2009 75.4548 43.0916 72.1232 43.0578ZM72.1141 37.0143C74.1512 37.0143 75.5123 35.3262 75.4941 32.749C75.4758 30.1718 74.0906 28.4611 72.0536 28.4611C70.039 28.4611 68.734 30.1267 68.7526 32.749C68.7712 35.3712 70.0996 37.0143 72.1141 37.0143ZM81.0212 24.9723C80.3572 24.9723 79.8018 24.4209 79.7971 23.7569C79.7923 23.0816 80.34 22.5414 81.004 22.5414C81.6793 22.5414 82.2346 23.0816 82.2393 23.7569C82.244 24.4209 81.6965 24.9723 81.0212 24.9723ZM81.1195 38.8488C80.5455 38.8488 80.1373 38.4211 80.1329 37.8021L80.062 27.7859C80.0576 27.1669 80.4597 26.7392 81.0337 26.7392C81.6077 26.7392 82.0159 27.1669 82.0203 27.7859L82.0912 37.8021C82.0956 38.4211 81.6935 38.8488 81.1195 38.8488ZM85.7226 38.8488C85.1486 38.8488 84.7404 38.4211 84.736 37.8021L84.6647 27.7296C84.6605 27.1444 85.0403 26.7392 85.5805 26.7392C86.1208 26.7392 86.5063 27.1444 86.5104 27.7296L86.5184 28.855H86.5634C86.8924 27.6396 88.034 26.7392 89.2045 26.7392C89.6322 26.7392 89.9367 26.8405 90.1293 27.0206C90.2993 27.1781 90.3797 27.4032 90.3816 27.6733C90.3837 27.9772 90.284 28.2023 90.0826 28.3598C89.8812 28.5286 89.5779 28.6074 89.1502 28.6074C87.3832 28.6074 86.6382 29.8791 86.6488 31.376L86.6943 37.8021C86.6987 38.4211 86.2965 38.8488 85.7226 38.8488ZM95.0413 38.8488C92.7116 38.8488 91.1373 37.442 91.1224 35.3374C91.1082 33.3342 92.6411 32.0737 95.3411 31.9162L98.7048 31.7248L98.6979 30.7457C98.6878 29.3164 97.7363 28.4611 96.1157 28.4611C94.8439 28.4611 93.9806 28.9225 93.336 30.0817C93.1583 30.4081 92.9005 30.5544 92.5291 30.5544C92.0226 30.5544 91.66 30.2055 91.6563 29.6766C91.6545 29.429 91.7313 29.1476 91.8869 28.8663C92.5418 27.5833 94.2465 26.7392 96.1485 26.7392C98.8946 26.7392 100.638 28.2248 100.655 30.5544L100.707 37.8584C100.711 38.4436 100.331 38.8488 99.7907 38.8488C99.2392 38.8488 98.8537 38.4436 98.8495 37.8584L98.8409 36.6317H98.7958C98.1075 37.9709 96.6169 38.8488 95.0413 38.8488ZM95.4684 37.1831C97.3142 37.1831 98.7343 35.8889 98.7224 34.2008L98.7156 33.2442L95.5769 33.4355C94.002 33.5368 93.1066 34.2345 93.1144 35.3374C93.1223 36.4516 94.0616 37.1831 95.4684 37.1831ZM104.81 38.8488C104.214 38.8488 103.828 38.4436 103.824 37.8134L103.758 28.5512H102.79C102.284 28.5512 101.955 28.2585 101.952 27.7521C101.948 27.2682 102.272 26.9418 102.779 26.9418H103.747L103.737 25.6363C103.722 23.3967 104.783 22.3163 106.696 22.3163C107.732 22.3163 108.286 22.6539 108.29 23.2279C108.292 23.588 108.125 23.8131 107.766 23.9144C107.597 23.9594 107.406 23.9819 107.158 23.9819C106.123 23.9819 105.676 24.4996 105.685 25.7038L105.694 26.9418H107.427C107.933 26.9418 108.262 27.2682 108.266 27.7521C108.269 28.2585 107.945 28.5512 107.438 28.5512H105.716L105.782 37.8134C105.786 38.4436 105.407 38.8488 104.81 38.8488ZM111.81 38.8488C111.214 38.8488 110.828 38.4436 110.824 37.8134L110.758 28.5512H109.791C109.284 28.5512 108.956 28.2585 108.952 27.7521C108.949 27.2682 109.273 26.9418 109.779 26.9418H110.747L110.738 25.6363C110.722 23.3967 111.783 22.3163 113.697 22.3163C114.732 22.3163 115.286 22.6539 115.29 23.2279C115.293 23.588 115.125 23.8131 114.766 23.9144C114.597 23.9594 114.406 23.9819 114.159 23.9819C113.123 23.9819 112.677 24.4996 112.685 25.7038L112.694 26.9418H114.427C114.934 26.9418 115.262 27.2682 115.266 27.7521C115.269 28.2585 114.945 28.5512 114.439 28.5512H112.717L112.782 37.8134C112.787 38.4436 112.407 38.8488 111.81 38.8488ZM121.546 38.8488C118.09 38.8488 116.049 36.6204 116.022 32.839C115.996 29.1476 118.061 26.7392 121.291 26.7392C124.285 26.7392 126.405 28.9788 126.428 32.1863C126.433 32.8953 126.031 33.3229 125.356 33.3229H118.04C118.057 35.6863 119.361 37.1494 121.455 37.1494C122.85 37.1494 123.702 36.6542 124.604 35.3262C124.805 35.0448 125.029 34.9323 125.333 34.9323C125.851 34.9323 126.202 35.2699 126.206 35.7876C126.207 35.9452 126.152 36.1477 126.064 36.3616C125.321 37.9484 123.684 38.8488 121.546 38.8488ZM118.041 31.7924H124.399C124.34 29.7666 123.081 28.4386 121.269 28.4386C119.446 28.4386 118.15 29.7779 118.041 31.7924Z" fill="black"/>
<path d="M74.8199 69.4091C74.2459 69.4091 73.8491 68.9927 73.8447 68.3737L73.8108 63.5794H73.732L69.1775 68.8576C68.8203 69.274 68.5849 69.4091 68.146 69.4091C67.6846 69.4091 67.2657 69.0602 67.2619 68.52C67.2598 68.2274 67.4158 68.0023 67.6278 67.7547L71.7811 63.0392L67.6433 58.8076C67.4052 58.5713 67.3253 58.4024 67.3233 58.1211C67.3198 57.6372 67.7226 57.2995 68.2178 57.2995C68.4879 57.2995 68.725 57.4008 68.9405 57.6372L73.7256 62.679H73.8044L73.7736 58.3349C73.7692 57.7159 74.1602 57.2995 74.7342 57.2995C75.3081 57.2995 75.705 57.7159 75.7094 58.3349L75.7401 62.679H75.8302L80.5439 57.6372C80.756 57.4008 80.9917 57.2995 81.2618 57.2995C81.757 57.2995 82.1645 57.6372 82.1679 58.1211C82.1699 58.4024 82.0924 58.5713 81.8577 58.8076L77.7798 63.0392L81.9998 67.7547C82.2154 68.0023 82.3746 68.2274 82.3766 68.52C82.3805 69.0602 81.9665 69.4091 81.5051 69.4091C81.0662 69.4091 80.8289 69.274 80.4658 68.8576L75.8366 63.5794H75.7465L75.7805 68.3737C75.7849 68.9927 75.3939 69.4091 74.8199 69.4091ZM85.8268 69.4091C85.1403 69.4091 84.7659 68.9927 84.7611 68.3061L84.6903 58.3124C84.686 57.7047 85.0883 57.2995 85.651 57.2995C86.2137 57.2995 86.6218 57.7047 86.6261 58.3124L86.682 66.2129H86.7721L92.1506 58.1098C92.5515 57.5021 92.8877 57.2995 93.4279 57.2995C94.0806 57.2995 94.5 57.7159 94.5049 58.4024L94.5756 68.3962C94.5799 69.0039 94.1777 69.4091 93.6149 69.4091C93.0522 69.4091 92.6442 69.0039 92.6399 68.3962L92.5839 60.4957H92.4939L87.1041 68.5988C86.7032 69.2065 86.367 69.4091 85.8268 69.4091ZM98.3471 73.3368C97.7731 73.3368 97.365 72.9091 97.3606 72.2901L97.2614 58.2899C97.2573 57.7047 97.6371 57.2995 98.1885 57.2995C98.7287 57.2995 99.1143 57.7047 99.1184 58.2899L99.1269 59.4828H99.1719C99.8828 58.1661 101.238 57.2995 102.938 57.2995C105.92 57.2995 107.963 59.6854 107.989 63.3543C108.015 67.0232 106.017 69.4091 103.069 69.4091C101.392 69.4091 100.035 68.5875 99.3286 67.3045H99.2835L99.3188 72.2901C99.3232 72.9091 98.9211 73.3368 98.3471 73.3368ZM102.629 67.6872C104.711 67.6872 106.005 66.0103 105.986 63.3543C105.967 60.7096 104.65 59.0214 102.567 59.0214C100.564 59.0214 99.2259 60.7546 99.2443 63.3543C99.2628 65.9653 100.626 67.6872 102.629 67.6872ZM113.625 69.4091C111.296 69.4091 109.721 68.0023 109.706 65.8977C109.692 63.8945 111.225 62.634 113.925 62.4765L117.289 62.2851L117.282 61.306C117.272 59.8767 116.32 59.0214 114.7 59.0214C113.428 59.0214 112.565 59.4828 111.92 60.642C111.742 60.9684 111.485 61.1147 111.113 61.1147C110.607 61.1147 110.244 60.7658 110.24 60.2369C110.239 59.9893 110.315 59.7079 110.471 59.4266C111.126 58.1436 112.831 57.2995 114.733 57.2995C117.479 57.2995 119.222 58.7851 119.239 61.1147L119.291 68.4187C119.295 69.0039 118.915 69.4091 118.375 69.4091C117.823 69.4091 117.438 69.0039 117.434 68.4187L117.425 67.192H117.38C116.692 68.5312 115.201 69.4091 113.625 69.4091ZM114.053 67.7434C115.898 67.7434 117.318 66.4492 117.306 64.7611L117.3 63.8045L114.161 63.9958C112.586 64.0971 111.691 64.7948 111.699 65.8977C111.706 67.0119 112.646 67.7434 114.053 67.7434ZM128.453 73.3368C127.901 73.3368 127.516 72.9766 127.512 72.4477L127.491 69.3528C123.844 69.2853 121.419 66.9669 121.393 63.3543C121.368 59.7417 123.76 57.4121 127.406 57.3558L127.384 54.3172C127.38 53.7882 127.76 53.4281 128.312 53.4281C128.863 53.4281 129.271 53.7882 129.275 54.3172L129.296 57.3558C132.921 57.4233 135.357 59.7417 135.382 63.3543C135.408 66.9669 133.005 69.2965 129.381 69.3528L129.403 72.4477C129.407 72.9766 129.004 73.3368 128.453 73.3368ZM127.479 67.6872L127.417 59.0214C124.919 59.0777 123.344 60.7096 123.363 63.3543C123.381 65.9878 124.98 67.6196 127.479 67.6872ZM129.37 67.6872C131.856 67.6309 133.432 65.999 133.413 63.3543C133.394 60.7208 131.796 59.0889 129.308 59.0214L129.37 67.6872ZM141.041 69.4091C138.712 69.4091 137.137 68.0023 137.122 65.8977C137.108 63.8945 138.641 62.634 141.341 62.4765L144.705 62.2851L144.698 61.306C144.688 59.8767 143.736 59.0214 142.116 59.0214C140.844 59.0214 139.981 59.4828 139.336 60.642C139.158 60.9684 138.901 61.1147 138.529 61.1147C138.023 61.1147 137.66 60.7658 137.656 60.2369C137.655 59.9893 137.731 59.7079 137.887 59.4266C138.542 58.1436 140.247 57.2995 142.149 57.2995C144.895 57.2995 146.638 58.7851 146.655 61.1147L146.707 68.4187C146.711 69.0039 146.331 69.4091 145.791 69.4091C145.239 69.4091 144.854 69.0039 144.85 68.4187L144.841 67.192H144.796C144.108 68.5312 142.617 69.4091 141.041 69.4091ZM141.468 67.7434C143.314 67.7434 144.734 66.4492 144.722 64.7611L144.716 63.8045L141.577 63.9958C140.002 64.0971 139.107 64.7948 139.114 65.8977C139.122 67.0119 140.062 67.7434 141.468 67.7434Z" fill="#969696"/>
<path d="M398.098 29.7735C398.603 29.4919 399.173 29.3441 399.753 29.3441C400.333 29.3441 400.905 29.4919 401.414 29.7735L413.412 36.4116C413.947 36.7073 414.394 37.1402 414.706 37.6652C415.019 38.1903 415.186 38.7884 415.19 39.3976L415.283 52.4517C415.287 53.0606 415.128 53.6584 414.823 54.1831C414.518 54.7079 414.077 55.1404 413.547 55.4361L401.642 62.0775C401.137 62.3591 400.568 62.5069 399.988 62.5069C399.408 62.5069 398.836 62.3591 398.327 62.0775L386.328 55.4361C385.794 55.1406 385.348 54.7083 385.035 54.1839C384.722 53.6594 384.555 53.062 384.55 52.4534L384.458 39.3976C384.453 38.7884 384.612 38.1903 384.917 37.6652C385.222 37.1402 385.663 36.7073 386.194 36.4116L398.098 29.7735Z" stroke="#F4F4F4" stroke-width="4.48179" stroke-linecap="round" stroke-linejoin="round"/>
<path d="M401.416 29.7734L413.414 36.4114C413.949 36.7072 414.396 37.1401 414.709 37.6651C415.021 38.1902 415.188 38.7883 415.192 39.3975L415.285 52.4516C415.289 53.0605 415.13 53.6583 414.825 54.183C414.52 54.7077 414.079 55.1403 413.549 55.4359L401.645 62.0774" stroke="#FFDA57" stroke-width="4.48179" stroke-linecap="round" stroke-linejoin="round"/>
</svg>
