<svg width="441" height="92" viewBox="0 0 441 92" fill="none" xmlns="http://www.w3.org/2000/svg">
<rect width="439.215" height="89.2933" rx="24" transform="matrix(1 0 0.00708157 0.999975 0.279297 1.3689)" fill="white"/>
<path d="M22.202 49.1718L22.1572 42.8558C22.1529 42.2433 22.6274 41.7461 23.2165 41.7461H27.0431C27.1843 41.7456 27.3237 41.7165 27.453 41.6605C27.5822 41.6046 27.6986 41.523 27.7952 41.4206L30.9709 37.8054C31.6382 37.1054 32.7909 37.6016 32.7979 38.5907L32.9031 53.4379C32.9102 54.4345 31.7505 54.9265 31.0774 54.2126L27.8614 50.6176C27.7631 50.5124 27.6443 50.4283 27.5125 50.3706C27.3806 50.313 27.2385 50.283 27.095 50.2826H23.2769C22.6879 50.2826 22.2063 49.7853 22.202 49.1718Z" fill="#FEBF0F" stroke="#FEBF0F" stroke-width="1.92077" stroke-linecap="round" stroke-linejoin="round"/>
<path d="M37.0938 42.2797C38.5296 44.1769 38.5556 47.8519 37.1466 49.7491" stroke="#FEBF0F" stroke-width="1.92077" stroke-linecap="round" stroke-linejoin="round"/>
<path d="M40.2695 38.5449C44.5539 42.6083 44.6279 49.4471 40.3753 53.4838" stroke="#FEBF0F" stroke-width="1.92077" stroke-linecap="round" stroke-linejoin="round"/>
<path d="M65.8327 2.00914L420.048 2.00914L420.039 0.728657L65.8236 0.728657L65.8327 2.00914ZM420.671 90.0197H66.4559L66.465 91.3002H420.68L420.671 90.0197Z" fill="#F4F4F4"/>
<path d="M68.4469 38.9366C67.8729 38.9366 67.4647 38.509 67.4604 37.89L67.3573 23.3383C67.3529 22.7193 67.7551 22.2917 68.329 22.2917C68.903 22.2917 69.3112 22.7193 69.3156 23.3383L69.4186 37.89C69.423 38.509 69.0209 38.9366 68.4469 38.9366ZM73.053 25.0602C72.389 25.0602 71.8336 24.5087 71.8289 23.8447C71.8242 23.1695 72.3718 22.6293 73.0358 22.6293C73.7111 22.6293 74.2664 23.1695 74.2712 23.8447C74.2759 24.5087 73.7283 25.0602 73.053 25.0602ZM73.1513 38.9366C72.5773 38.9366 72.1691 38.509 72.1647 37.89L72.0938 27.8738C72.0894 27.2548 72.4916 26.8271 73.0655 26.8271C73.6395 26.8271 74.0477 27.2548 74.0521 27.8738L74.123 37.89C74.1274 38.509 73.7253 38.9366 73.1513 38.9366ZM81.6259 38.9366C78.3846 38.9366 76.1848 36.607 76.1584 32.8819C76.1319 29.1455 78.2989 26.8271 81.5402 26.8271C84.7702 26.8271 86.97 29.1455 86.9965 32.8819C87.0228 36.607 84.856 38.9366 81.6259 38.9366ZM81.6137 37.2147C83.6846 37.2147 85.0239 35.6392 85.0044 32.8819C84.9849 30.1246 83.6232 28.549 81.5524 28.549C79.4815 28.549 78.1309 30.1246 78.1504 32.8819C78.17 35.6392 79.5429 37.2147 81.6137 37.2147ZM89.9993 38.9366C89.4253 38.9366 89.0171 38.509 89.0127 37.89L88.9414 27.8175C88.9372 27.2323 89.317 26.8271 89.8572 26.8271C90.3975 26.8271 90.783 27.2323 90.7871 27.8175L90.7948 28.8979H90.8398C91.4836 27.6374 92.7271 26.8271 94.5391 26.8271C97.1051 26.8271 98.6024 28.4815 98.6213 31.1375L98.6691 37.89C98.6735 38.509 98.2713 38.9366 97.6973 38.9366C97.1234 38.9366 96.7152 38.509 96.7108 37.89L96.6654 31.4864C96.6521 29.5956 95.7556 28.5603 93.9549 28.5603C92.1092 28.5603 90.9142 29.8657 90.9282 31.8465L90.971 37.89C90.9754 38.509 90.5733 38.9366 89.9993 38.9366Z" fill="black"/>
<path d="M67.7286 69.3506C66.8957 69.3506 66.3641 68.968 66.3598 68.3715C66.3566 67.9101 66.6469 67.595 67.1309 67.595H67.2547C68.2337 67.5725 68.7558 66.6046 68.9087 64.3538L69.2846 58.6366C69.3248 57.9614 69.6711 57.59 70.2901 57.59H75.9961C76.6151 57.59 77.0119 57.9951 77.0164 58.6366L77.0869 68.5854C77.0907 69.1256 76.6994 69.4969 76.1367 69.4969C75.574 69.4969 75.1549 69.1256 75.1511 68.5854L75.0846 59.1993H71.1005L70.7648 64.23C70.5308 67.7413 69.5743 69.3506 67.7286 69.3506ZM84.7801 69.4969C81.325 69.4969 79.2834 67.2686 79.2567 63.4872C79.2305 59.7958 81.2955 57.3874 84.5256 57.3874C87.5193 57.3874 89.6397 59.627 89.6624 62.8345C89.6675 63.5435 89.2653 63.9711 88.5901 63.9711H81.2746C81.2914 66.3345 82.596 67.7976 84.6893 67.7976C86.0849 67.7976 86.9367 67.3024 87.8389 65.9744C88.0395 65.693 88.2638 65.5805 88.5677 65.5805C89.0854 65.5805 89.4367 65.9181 89.4403 66.4358C89.4415 66.5934 89.3866 66.7959 89.2981 67.0098C88.5553 68.5966 86.9185 69.4969 84.7801 69.4969ZM81.275 62.4406H87.6338C87.5745 60.4148 86.3158 59.0868 84.5038 59.0868C82.6806 59.0868 81.3846 60.4261 81.275 62.4406ZM92.8932 69.2944C92.2742 69.2944 91.8774 68.8892 91.8729 68.2477L91.8048 58.6366C91.8003 57.9951 92.1913 57.59 92.8103 57.59H96.8057C99.0003 57.59 100.348 58.7267 100.361 60.5836C100.369 61.7766 99.5329 62.8795 98.4541 63.1046L98.4547 63.1946C99.9305 63.3972 100.906 64.4663 100.916 65.9294C100.931 68.0001 99.4096 69.2944 96.9223 69.2944H92.8932ZM93.7676 62.4518H96.2774C97.7517 62.4518 98.4569 61.9116 98.4489 60.7862C98.4416 59.7508 97.7735 59.1768 96.5468 59.1768H93.7444L93.7676 62.4518ZM93.8048 67.7075H96.821C98.2391 67.7075 98.9999 67.066 98.9915 65.8843C98.9827 64.6351 98.1568 64.0274 96.4461 64.0274H93.7788L93.8048 67.7075Z" fill="#969696"/>
<path d="M398.098 29.8613C398.603 29.5797 399.173 29.4319 399.753 29.4319C400.333 29.4319 400.905 29.5797 401.414 29.8613L413.412 36.4993C413.947 36.7951 414.394 37.2279 414.706 37.753C415.019 38.2781 415.186 38.8762 415.19 39.4854L415.283 52.5395C415.287 53.1484 415.128 53.7462 414.823 54.2709C414.518 54.7956 414.077 55.2282 413.547 55.5238L401.642 62.1653C401.137 62.4469 400.568 62.5947 399.988 62.5947C399.408 62.5947 398.836 62.4469 398.327 62.1653L386.328 55.5238C385.794 55.2283 385.348 54.796 385.035 54.2716C384.722 53.7472 384.555 53.1498 384.55 52.5412L384.458 39.4854C384.453 38.8762 384.612 38.2781 384.917 37.753C385.222 37.2279 385.663 36.7951 386.194 36.4993L398.098 29.8613Z" stroke="#F4F4F4" stroke-width="4.48179" stroke-linecap="round" stroke-linejoin="round"/>
<path d="M401.416 29.8611L413.414 36.4991C413.949 36.7949 414.396 37.2277 414.709 37.7528C415.021 38.2778 415.188 38.876 415.192 39.4852L415.285 52.5392C415.289 53.1481 415.13 53.7459 414.825 54.2707C414.52 54.7954 414.079 55.228 413.549 55.5236L401.645 62.165" stroke="#FFDA57" stroke-width="4.48179" stroke-linecap="round" stroke-linejoin="round"/>
</svg>
