<svg width="36" height="40" viewBox="0 0 36 40" fill="none" xmlns="http://www.w3.org/2000/svg">
<path d="M31 0.5H8C3.164 0.5 0.5 3.164 0.5 8V32C0.5 36.486 3.514 39.5 8 39.5H31C33.48 39.5 35.5 37.482 35.5 35V23V5C35.5 2.518 33.48 0.5 31 0.5ZM12 8.5H24C24.828 8.5 25.5 9.172 25.5 10C25.5 10.828 24.828 11.5 24 11.5H12C11.172 11.5 10.5 10.828 10.5 10C10.5 9.172 11.172 8.5 12 8.5ZM12 14.5H20C20.828 14.5 21.5 15.172 21.5 16C21.5 16.828 20.828 17.5 20 17.5H12C11.172 17.5 10.5 16.828 10.5 16C10.5 15.172 11.172 14.5 12 14.5ZM32.5 35C32.5 35.828 31.826 36.5 31 36.5H8C3.94 36.5 3.5 33.352 3.5 32C3.5 30.648 3.94 27.5 8 27.5H31C31.29 27.5 31.5702 27.4661 31.8442 27.4141C31.9322 27.3981 32.0161 27.3679 32.1021 27.3459C32.2341 27.3119 32.372 27.2879 32.5 27.2419V35Z" fill="#141414"/>
</svg>
